<?xml version="1.0" encoding="utf-8"?>
<!-- Generator: Adobe Illustrator 24.0.2, SVG Export Plug-In . SVG Version: 6.00 Build 0)  -->
<svg version="1.1" id="Capa_1" xmlns="http://www.w3.org/2000/svg" xmlns:xlink="http://www.w3.org/1999/xlink" x="0px" y="0px"
	 viewBox="0 0 207 171" style="enable-background:new 0 0 207 171;" xml:space="preserve">
<style type="text/css">
	.st0{fill:#FFFFFF;}
</style>
<path class="st0" d="M106.68,160.68L106.68,160.68c-1.76,1.76-4.61,1.76-6.36,0L4.86,65.22c-1.76-1.76-1.76-4.61,0-6.36l0,0
	c1.76-1.76,4.61-1.76,6.36,0l95.46,95.46C108.44,156.08,108.44,158.92,106.68,160.68z"/>
<path class="st0" d="M100.32,160.68L100.32,160.68c-1.76-1.76-1.76-4.61,0-6.36l95.46-95.46c1.76-1.76,4.61-1.76,6.36,0l0,0
	c1.76,1.76,1.76,4.61,0,6.36l-95.46,95.46C104.92,162.44,102.08,162.44,100.32,160.68z"/>
<path class="st0" d="M109.32,124.68L109.32,124.68c-1.76-1.76-1.76-4.61,0-6.36L191.64,36c1.76-1.76,4.61-1.76,6.36,0v0
	c1.76,1.76,1.76,4.61,0,6.36l-82.32,82.32C113.92,126.44,111.08,126.44,109.32,124.68z"/>
<path class="st0" d="M109.32,97.68L109.32,97.68c-1.76-1.76-1.76-4.61,0-6.36L182.64,18c1.76-1.76,4.61-1.76,6.36,0v0
	c1.76,1.76,1.76,4.61,0,6.36l-73.32,73.32C113.92,99.44,111.08,99.44,109.32,97.68z"/>
<path class="st0" d="M109.32,70.68L109.32,70.68c-1.76-1.76-1.76-4.61,0-6.36L164.64,9c1.76-1.76,4.61-1.76,6.36,0l0,0
	c1.76,1.76,1.76,4.61,0,6.36l-55.32,55.32C113.92,72.44,111.08,72.44,109.32,70.68z"/>
<path class="st0" d="M100.32,52.68L100.32,52.68c-1.76-1.76-1.76-4.61,0-6.36l25.14-25.14c1.76-1.76,4.61-1.76,6.36,0l0,0
	c1.76,1.76,1.76,4.61,0,6.36l-25.14,25.14C104.92,54.44,102.08,54.44,100.32,52.68z"/>
<path class="st0" d="M97.68,124.68L97.68,124.68c-1.76,1.76-4.61,1.76-6.36,0L9,42.36C7.24,40.61,7.24,37.76,9,36l0,0
	c1.76-1.76,4.61-1.76,6.36,0l82.32,82.32C99.44,120.08,99.44,122.92,97.68,124.68z"/>
<path class="st0" d="M97.68,97.68L97.68,97.68c-1.76,1.76-4.61,1.76-6.36,0L18,24.36c-1.76-1.76-1.76-4.61,0-6.36l0,0
	c1.76-1.76,4.61-1.76,6.36,0l73.32,73.32C99.44,93.08,99.44,95.92,97.68,97.68z"/>
<path class="st0" d="M97.68,70.68L97.68,70.68c-1.76,1.76-4.61,1.76-6.36,0L36,15.36c-1.76-1.76-1.76-4.61,0-6.36l0,0
	c1.76-1.76,4.61-1.76,6.36,0l55.32,55.32C99.44,66.08,99.44,68.92,97.68,70.68z"/>
<path class="st0" d="M106.68,52.68L106.68,52.68c-1.76,1.76-4.61,1.76-6.36,0L75.18,27.55c-1.76-1.76-1.76-4.61,0-6.36l0,0
	c1.76-1.76,4.61-1.76,6.36,0l25.14,25.14C108.44,48.08,108.44,50.92,106.68,52.68z"/>
</svg>
