<?xml version="1.0" encoding="utf-8"?>
<!-- Generator: Adobe Illustrator 24.0.2, SVG Export Plug-In . SVG Version: 6.00 Build 0)  -->
<svg version="1.1" id="Capa_1" xmlns="http://www.w3.org/2000/svg" xmlns:xlink="http://www.w3.org/1999/xlink" x="0px" y="0px"
	 viewBox="0 0 207 171" style="enable-background:new 0 0 207 171;" xml:space="preserve">
<style type="text/css">
	.st0{fill:url(#SVGID_1_);}
</style>
<g>
	<g>
		<linearGradient id="SVGID_1_" gradientUnits="userSpaceOnUse" x1="3.5406" y1="84.841" x2="203.4594" y2="84.841">
			<stop  offset="0.2714" style="stop-color:#58BFC7"/>
			<stop  offset="0.3743" style="stop-color:#3EB1C2"/>
			<stop  offset="0.4898" style="stop-color:#27A8BF"/>
			<stop  offset="0.6131" style="stop-color:#1DA5BE"/>
		</linearGradient>
		<path class="st0" d="M109.32,97.68L109.32,97.68c1.76,1.76,4.61,1.76,6.36,0L189,24.36c1.76-1.76,1.76-4.61,0-6.36
			c-1.76-1.76-4.61-1.76-6.36,0l-73.32,73.32C107.56,93.08,107.56,95.92,109.32,97.68z M100.32,52.68c0.88,0.88,2.03,1.32,3.18,1.32
			c1.15,0,2.3-0.44,3.18-1.32l25.14-25.14c1.76-1.76,1.76-4.61,0-6.36c-1.76-1.76-4.61-1.76-6.36,0L103.5,43.14L81.55,21.18
			c-1.76-1.76-4.61-1.76-6.36,0c-1.76,1.76-1.76,4.61,0,6.36L100.32,52.68z M109.32,124.68L109.32,124.68
			c1.76,1.76,4.61,1.76,6.36,0L198,42.36c1.76-1.76,1.76-4.61,0-6.36c-1.76-1.76-4.61-1.76-6.36,0l-82.32,82.32
			C107.56,120.08,107.56,122.92,109.32,124.68z M109.32,70.68L109.32,70.68c1.76,1.76,4.61,1.76,6.36,0L171,15.36
			c1.76-1.76,1.76-4.61,0-6.36c-1.76-1.76-4.61-1.76-6.36,0l-55.32,55.32C107.56,66.08,107.56,68.92,109.32,70.68z M91.32,70.68
			c1.76,1.76,4.61,1.76,6.36,0h0c1.76-1.76,1.76-4.61,0-6.36L42.36,9C40.61,7.24,37.76,7.24,36,9c-1.76,1.76-1.76,4.61,0,6.36
			L91.32,70.68z M202.14,58.86c-1.76-1.76-4.61-1.76-6.36,0l-92.28,92.28L11.22,58.86c-1.76-1.76-4.61-1.76-6.36,0
			c-1.76,1.76-1.76,4.61,0,6.36l95.46,95.46c0.88,0.88,2.03,1.32,3.18,1.32c1.15,0,2.3-0.44,3.18-1.32l95.46-95.46
			C203.9,63.47,203.9,60.62,202.14,58.86z M91.32,124.68c1.76,1.76,4.61,1.76,6.36,0h0c1.76-1.76,1.76-4.61,0-6.36L15.36,36
			c-1.76-1.76-4.61-1.76-6.36,0c-1.76,1.76-1.76,4.61,0,6.36L91.32,124.68z M91.32,97.68c1.76,1.76,4.61,1.76,6.36,0h0
			c1.76-1.76,1.76-4.61,0-6.36L24.36,18c-1.76-1.76-4.61-1.76-6.36,0c-1.76,1.76-1.76,4.61,0,6.36L91.32,97.68z"/>
	</g>
</g>
</svg>
